<?xml version="1.0" encoding="utf-8"?>
<!-- Generator: Adobe Illustrator 22.1.0, SVG Export Plug-In . SVG Version: 6.00 Build 0)  -->
<svg version="1.1" id="Layer_1" xmlns="http://www.w3.org/2000/svg" xmlns:xlink="http://www.w3.org/1999/xlink" x="0px" y="0px"
	 viewBox="0 0 930 130" style="enable-background:new 0 0 930 130;" xml:space="preserve">
<style type="text/css">
	.st0{fill:#0F242E;}
	.st1{fill:#1BAE95;}
	.st2{fill:#1AA08A;}
	.st3{fill:#1CBFA2;}
</style>
<g>
	<g>
		<path class="st0" d="M148.583,35.956c6.711,0,10.448,1.614,13.336,4.162c3.313,2.888,5.521,7.136,5.521,11.978
			c0,3.907-1.869,7.9-3.822,9.938c5.267,2.633,8.919,8.58,8.919,15.206c0,5.012-2.124,9.599-5.437,12.827
			c-3.313,3.313-7.9,5.352-15.545,5.352h-23.19V35.956H148.583z M139.833,58.891h8.07c3.568,0,5.182-0.849,6.371-2.124
			c1.02-1.104,1.699-2.633,1.699-4.247c0-1.614-0.679-3.143-1.699-4.248c-1.189-1.274-2.803-2.124-6.371-2.124h-8.07V58.891z
			 M151.301,85.225c3.993,0,6.201-1.02,7.645-2.633c1.359-1.444,2.124-3.313,2.124-5.437s-0.764-3.993-2.124-5.437
			c-1.444-1.614-3.652-2.633-7.645-2.633h-11.468v16.14H151.301z"/>
		<path class="st0" d="M214.837,88.877c-3.993,4.757-10.533,7.391-16.904,7.391c-12.317,0-21.576-8.495-21.576-21.406
			c0-11.468,7.815-21.492,20.047-21.492c11.382,0,19.452,9.599,19.452,21.067c0,1.104-0.085,2.208-0.255,3.143H187.06
			c0.595,5.776,5.267,9.769,11.128,9.769c4.672,0,8.41-2.633,10.363-4.757L214.837,88.877z M204.559,69.51
			c-0.34-3.653-3.653-7.221-8.155-7.221c-4.587,0-8.325,3.483-8.834,7.221H204.559z"/>
		<path class="st0" d="M224.346,82.846c2.803,2.548,7.136,4.077,11.298,4.077c2.973,0,5.267-1.444,5.267-3.483
			c0-6.201-19.962-3.992-19.962-17.244c0-7.9,7.646-12.827,15.8-12.827c5.352,0,11.212,2.039,13.931,4.163l-5.182,7.985
			c-2.124-1.529-4.927-2.803-7.9-2.803c-3.058,0-5.606,1.189-5.606,3.313c0,5.352,19.962,3.228,19.962,17.499
			c0,7.9-7.73,12.742-16.395,12.742c-5.691,0-11.723-1.954-16.564-5.521L224.346,82.846z"/>
		<path class="st0" d="M290.602,95.418c-1.444,0.51-4.757,0.85-6.88,0.85c-6.626,0-11.468-2.209-14.271-5.946
			c-2.124-2.803-3.058-6.456-3.058-12.317v-14.44h-11.468v-9.344h11.468V42.751h11.043v11.468h13.591v9.344h-13.591v15.715
			c0,2.548,0.425,4.077,1.359,5.182c1.104,1.274,2.888,2.039,5.606,2.039c1.614,0,3.737-0.255,4.502-0.425L290.602,95.418z"/>
		<path class="st0" d="M332.901,88.877c-3.993,4.757-10.533,7.391-16.904,7.391c-12.317,0-21.576-8.495-21.576-21.406
			c0-11.468,7.815-21.492,20.047-21.492c11.382,0,19.452,9.599,19.452,21.067c0,1.104-0.085,2.208-0.255,3.143h-28.542
			c0.595,5.776,5.267,9.769,11.128,9.769c4.672,0,8.41-2.633,10.363-4.757L332.901,88.877z M322.623,69.51
			c-0.34-3.653-3.653-7.221-8.155-7.221c-4.587,0-8.325,3.483-8.834,7.221H322.623z"/>
		<path class="st0" d="M368.319,68.66v9.344h-28.032V68.66H368.319z"/>
		<path class="st0" d="M395.328,72.737l22.681,22.681h-14.866L385.729,77.58v17.838h-11.043V35.106h11.043v32.449l14.186-13.336
			h15.545L395.328,72.737z"/>
		<path class="st0" d="M449.009,53.709l-1.274,10.279c-0.764-0.255-2.378-0.425-3.992-0.425c-4.842,0-8.665,3.482-10.023,5.946
			v25.908h-11.043V54.219h10.618v6.371c0-3.398,4.587-7.221,11.977-7.221C446.886,53.37,447.82,53.54,449.009,53.709z"/>
		<path class="st0" d="M490.459,88.877c-3.992,4.757-10.533,7.391-16.904,7.391c-12.316,0-21.576-8.495-21.576-21.406
			c0-11.468,7.815-21.492,20.047-21.492c11.383,0,19.452,9.599,19.452,21.067c0,1.104-0.085,2.208-0.255,3.143h-28.542
			c0.595,5.776,5.267,9.769,11.127,9.769c4.673,0,8.41-2.633,10.364-4.757L490.459,88.877z M480.181,69.51
			c-0.34-3.653-3.652-7.221-8.154-7.221c-4.587,0-8.325,3.483-8.834,7.221H480.181z"/>
		<path class="st0" d="M529.699,89.047c0,3.143-4.078,7.221-11.468,7.221c-6.116,0-11.893-2.718-15.546-6.966
			c-3.228-3.737-5.267-8.834-5.267-14.44c0-12.147,9.005-21.492,20.218-21.492c7.475,0,11.298,3.653,11.638,6.966V35.106h11.043
			v60.312h-10.618V89.047z M529.274,68.66c-2.294-3.058-5.946-5.097-10.194-5.097c-6.455,0-10.618,5.352-10.618,11.298
			c0,6.456,4.673,11.212,10.873,11.212c4.163,0,7.815-2.039,9.939-5.097V68.66z"/>
		<path class="st0" d="M554.329,32.558c3.992,0,7.22,3.058,7.22,7.051c0,3.992-3.228,7.05-7.22,7.05s-7.221-3.058-7.221-7.05
			C547.108,35.616,550.337,32.558,554.329,32.558z M559.851,95.418h-11.043V54.219h11.043V95.418z"/>
		<path class="st0" d="M602.746,95.418c-1.444,0.51-4.757,0.85-6.881,0.85c-6.625,0-11.467-2.209-14.271-5.946
			c-2.124-2.803-3.058-6.456-3.058-12.317v-14.44h-11.468v-9.344h11.468V42.751h11.043v11.468h13.591v9.344H589.58v15.715
			c0,2.548,0.424,4.077,1.358,5.182c1.104,1.274,2.889,2.039,5.606,2.039c1.614,0,3.738-0.255,4.502-0.425L602.746,95.418z"/>
		<path class="st0" d="M641.393,95.418c-1.444,0.51-4.757,0.85-6.881,0.85c-6.625,0-11.467-2.209-14.271-5.946
			c-2.124-2.803-3.058-6.456-3.058-12.317v-14.44h-11.468v-9.344h11.468V42.751h11.043v11.468h13.591v9.344h-13.591v15.715
			c0,2.548,0.424,4.077,1.358,5.182c1.104,1.274,2.889,2.039,5.606,2.039c1.614,0,3.738-0.255,4.502-0.425L641.393,95.418z"/>
		<path class="st0" d="M668.827,72.737l22.681,22.681h-14.865L659.229,77.58v17.838h-11.043V35.106h11.043v32.449l14.186-13.336
			h15.545L668.827,72.737z"/>
		<path class="st0" d="M714.269,53.37c12.487,0,21.916,9.599,21.916,21.492c0,11.892-9.429,21.406-21.916,21.406
			c-12.486,0-21.916-9.514-21.916-21.406C692.353,62.969,701.782,53.37,714.269,53.37z M714.269,86.074
			c6.456,0,10.873-5.012,10.873-11.212c0-6.201-4.417-11.298-10.873-11.298c-6.455,0-10.873,5.097-10.873,11.298
			C703.396,81.062,707.813,86.074,714.269,86.074z"/>
		<path class="st0" d="M767.611,53.709l-1.274,10.279c-0.765-0.255-2.378-0.425-3.992-0.425c-4.842,0-8.664,3.482-10.023,5.946
			v25.908h-11.043V54.219h10.618v6.371c0-3.398,4.587-7.221,11.978-7.221C765.487,53.37,766.422,53.54,767.611,53.709z"/>
		<path class="st0" d="M807.107,95.418c-1.444,0.51-4.757,0.85-6.881,0.85c-6.625,0-11.467-2.209-14.271-5.946
			c-2.124-2.803-3.058-6.456-3.058-12.317v-14.44h-11.468v-9.344h11.468V42.751h11.043v11.468h13.591v9.344h-13.591v15.715
			c0,2.548,0.424,4.077,1.358,5.182c1.104,1.274,2.889,2.039,5.606,2.039c1.614,0,3.738-0.255,4.502-0.425L807.107,95.418z"/>
		<path class="st0" d="M820.865,81.402c4.162,0,7.476,3.313,7.476,7.475c0,4.163-3.313,7.391-7.476,7.391s-7.391-3.228-7.391-7.391
			C813.475,84.715,816.703,81.402,820.865,81.402z"/>
		<path class="st0" d="M847.027,60.59c0-3.398,4.247-7.221,11.638-7.221c5.691,0,10.873,2.549,14.271,6.626
			c2.719,3.228,4.247,7.39,4.247,14.441v20.981H866.14V73.587c0-4.077-0.934-6.201-2.463-7.73c-1.444-1.444-3.653-2.293-6.201-2.293
			c-4.672,0-8.494,2.973-10.023,5.097v26.758h-11.043V54.219h10.618V60.59z"/>
		<path class="st0" d="M905.04,53.37c12.487,0,21.916,9.599,21.916,21.492c0,11.892-9.429,21.406-21.916,21.406
			c-12.486,0-21.916-9.514-21.916-21.406C883.124,62.969,892.554,53.37,905.04,53.37z M905.04,86.074
			c6.456,0,10.873-5.012,10.873-11.212c0-6.201-4.417-11.298-10.873-11.298c-6.455,0-10.873,5.097-10.873,11.298
			C894.167,81.062,898.585,86.074,905.04,86.074z"/>
	</g>
	<g>
		<path class="st1" d="M3.044,91.971V38.03c19.274,0,34.954-15.68,34.954-34.954h53.941C91.939,52.093,52.061,91.971,3.044,91.971z"
			/>
		<path class="st2" d="M10.236,38.03v0.292c22.091,1.777,41.928,11.666,56.522,26.676c1.164-1.197,2.297-2.423,3.393-3.684
			C54.337,46.86,33.299,38.03,10.236,38.03z"/>
		<path class="st3" d="M91.939,126.924H37.998c0-19.274-15.68-34.954-34.954-34.954V38.03
			C52.061,38.03,91.939,77.908,91.939,126.924z"/>
	</g>
</g>
</svg>
